<svg width="200" height="32" viewBox="0 0 200 32" fill="none" xmlns="http://www.w3.org/2000/svg">
<mask id="path-1-outside-1_59_630" maskUnits="userSpaceOnUse" x="-1" y="5" width="100" height="23" fill="black">
<rect fill="white" x="-1" y="5" width="100" height="23"/>
<path d="M0.432 26L4.212 7.1H8.559L13.77 19.979H11.475L21.573 7.1H26.136L22.41 26H17.469L19.71 14.552L20.601 14.525L13.122 24.137H10.773L6.696 14.498L7.641 14.579L5.346 26H0.432ZM36.3987 26.378C34.4547 26.378 32.7807 26.027 31.3767 25.325C29.9727 24.605 28.8927 23.624 28.1367 22.382C27.3807 21.14 27.0027 19.7 27.0027 18.062C27.0027 16.406 27.2907 14.894 27.8667 13.526C28.4427 12.14 29.2527 10.943 30.2967 9.935C31.3407 8.909 32.5827 8.117 34.0227 7.559C35.4807 7.001 37.0737 6.722 38.8017 6.722C40.7457 6.722 42.4197 7.082 43.8237 7.802C45.2277 8.504 46.3077 9.476 47.0637 10.718C47.8197 11.96 48.1977 13.4 48.1977 15.038C48.1977 16.694 47.9097 18.215 47.3337 19.601C46.7577 20.969 45.9477 22.166 44.9037 23.192C43.8597 24.2 42.6087 24.983 41.1507 25.541C39.7107 26.099 38.1267 26.378 36.3987 26.378ZM36.8577 21.95C37.7937 21.95 38.6217 21.779 39.3417 21.437C40.0797 21.095 40.7007 20.618 41.2047 20.006C41.7267 19.376 42.1227 18.665 42.3927 17.873C42.6627 17.081 42.7977 16.244 42.7977 15.362C42.7977 14.516 42.6177 13.778 42.2577 13.148C41.9157 12.518 41.4117 12.032 40.7457 11.69C40.0977 11.33 39.2967 11.15 38.3427 11.15C37.4247 11.15 36.5967 11.321 35.8587 11.663C35.1207 12.005 34.4907 12.491 33.9687 13.121C33.4647 13.733 33.0777 14.435 32.8077 15.227C32.5377 16.019 32.4027 16.856 32.4027 17.738C32.4027 18.566 32.5737 19.304 32.9157 19.952C33.2757 20.582 33.7797 21.077 34.4277 21.437C35.0937 21.779 35.9037 21.95 36.8577 21.95ZM56.0737 26.378C54.9937 26.378 53.9587 26.288 52.9687 26.108C51.9787 25.946 51.0787 25.712 50.2687 25.406C49.4587 25.082 48.7657 24.731 48.1897 24.353L50.2957 20.357C50.9437 20.753 51.6097 21.095 52.2937 21.383C52.9957 21.653 53.7067 21.86 54.4267 22.004C55.1467 22.148 55.8667 22.22 56.5867 22.22C57.2707 22.22 57.8557 22.157 58.3417 22.031C58.8277 21.887 59.1967 21.689 59.4487 21.437C59.7007 21.185 59.8267 20.888 59.8267 20.546C59.8267 20.168 59.6557 19.871 59.3137 19.655C58.9897 19.421 58.5577 19.223 58.0177 19.061C57.4777 18.899 56.8747 18.737 56.2087 18.575C55.5607 18.395 54.9037 18.188 54.2377 17.954C53.5897 17.702 52.9957 17.396 52.4557 17.036C51.9157 16.658 51.4747 16.181 51.1327 15.605C50.8087 15.029 50.6467 14.318 50.6467 13.472C50.6467 12.104 51.0157 10.916 51.7537 9.908C52.4917 8.9 53.5357 8.117 54.8857 7.559C56.2537 7.001 57.8647 6.722 59.7187 6.722C61.0687 6.722 62.3287 6.866 63.4987 7.154C64.6687 7.424 65.6767 7.82 66.5227 8.342L64.5787 12.311C63.8407 11.843 63.0217 11.492 62.1217 11.258C61.2397 11.006 60.3307 10.88 59.3947 10.88C58.6747 10.88 58.0537 10.961 57.5317 11.123C57.0277 11.285 56.6407 11.51 56.3707 11.798C56.1187 12.068 55.9927 12.374 55.9927 12.716C55.9927 13.076 56.1547 13.373 56.4787 13.607C56.8027 13.841 57.2347 14.039 57.7747 14.201C58.3327 14.363 58.9357 14.534 59.5837 14.714C60.2497 14.876 60.9067 15.074 61.5547 15.308C62.2027 15.524 62.8057 15.821 63.3637 16.199C63.9217 16.559 64.3627 17.018 64.6867 17.576C65.0107 18.134 65.1727 18.827 65.1727 19.655C65.1727 21.005 64.8037 22.184 64.0657 23.192C63.3277 24.2 62.2747 24.983 60.9067 25.541C59.5387 26.099 57.9277 26.378 56.0737 26.378ZM82.8972 7.1H88.2432L84.4632 26H79.1172L82.8972 7.1ZM71.8542 26H66.5082L70.2882 7.1H75.6342L71.8542 26ZM80.9802 18.629H72.9612L73.8522 14.201H81.8712L80.9802 18.629ZM88.2611 26L92.0411 7.1H97.3871L93.6071 26H88.2611Z"/>
</mask>
<path d="M0.432 26L4.212 7.1H8.559L13.77 19.979H11.475L21.573 7.1H26.136L22.41 26H17.469L19.71 14.552L20.601 14.525L13.122 24.137H10.773L6.696 14.498L7.641 14.579L5.346 26H0.432ZM36.3987 26.378C34.4547 26.378 32.7807 26.027 31.3767 25.325C29.9727 24.605 28.8927 23.624 28.1367 22.382C27.3807 21.14 27.0027 19.7 27.0027 18.062C27.0027 16.406 27.2907 14.894 27.8667 13.526C28.4427 12.14 29.2527 10.943 30.2967 9.935C31.3407 8.909 32.5827 8.117 34.0227 7.559C35.4807 7.001 37.0737 6.722 38.8017 6.722C40.7457 6.722 42.4197 7.082 43.8237 7.802C45.2277 8.504 46.3077 9.476 47.0637 10.718C47.8197 11.96 48.1977 13.4 48.1977 15.038C48.1977 16.694 47.9097 18.215 47.3337 19.601C46.7577 20.969 45.9477 22.166 44.9037 23.192C43.8597 24.2 42.6087 24.983 41.1507 25.541C39.7107 26.099 38.1267 26.378 36.3987 26.378ZM36.8577 21.95C37.7937 21.95 38.6217 21.779 39.3417 21.437C40.0797 21.095 40.7007 20.618 41.2047 20.006C41.7267 19.376 42.1227 18.665 42.3927 17.873C42.6627 17.081 42.7977 16.244 42.7977 15.362C42.7977 14.516 42.6177 13.778 42.2577 13.148C41.9157 12.518 41.4117 12.032 40.7457 11.69C40.0977 11.33 39.2967 11.15 38.3427 11.15C37.4247 11.15 36.5967 11.321 35.8587 11.663C35.1207 12.005 34.4907 12.491 33.9687 13.121C33.4647 13.733 33.0777 14.435 32.8077 15.227C32.5377 16.019 32.4027 16.856 32.4027 17.738C32.4027 18.566 32.5737 19.304 32.9157 19.952C33.2757 20.582 33.7797 21.077 34.4277 21.437C35.0937 21.779 35.9037 21.95 36.8577 21.95ZM56.0737 26.378C54.9937 26.378 53.9587 26.288 52.9687 26.108C51.9787 25.946 51.0787 25.712 50.2687 25.406C49.4587 25.082 48.7657 24.731 48.1897 24.353L50.2957 20.357C50.9437 20.753 51.6097 21.095 52.2937 21.383C52.9957 21.653 53.7067 21.86 54.4267 22.004C55.1467 22.148 55.8667 22.22 56.5867 22.22C57.2707 22.22 57.8557 22.157 58.3417 22.031C58.8277 21.887 59.1967 21.689 59.4487 21.437C59.7007 21.185 59.8267 20.888 59.8267 20.546C59.8267 20.168 59.6557 19.871 59.3137 19.655C58.9897 19.421 58.5577 19.223 58.0177 19.061C57.4777 18.899 56.8747 18.737 56.2087 18.575C55.5607 18.395 54.9037 18.188 54.2377 17.954C53.5897 17.702 52.9957 17.396 52.4557 17.036C51.9157 16.658 51.4747 16.181 51.1327 15.605C50.8087 15.029 50.6467 14.318 50.6467 13.472C50.6467 12.104 51.0157 10.916 51.7537 9.908C52.4917 8.9 53.5357 8.117 54.8857 7.559C56.2537 7.001 57.8647 6.722 59.7187 6.722C61.0687 6.722 62.3287 6.866 63.4987 7.154C64.6687 7.424 65.6767 7.82 66.5227 8.342L64.5787 12.311C63.8407 11.843 63.0217 11.492 62.1217 11.258C61.2397 11.006 60.3307 10.88 59.3947 10.88C58.6747 10.88 58.0537 10.961 57.5317 11.123C57.0277 11.285 56.6407 11.51 56.3707 11.798C56.1187 12.068 55.9927 12.374 55.9927 12.716C55.9927 13.076 56.1547 13.373 56.4787 13.607C56.8027 13.841 57.2347 14.039 57.7747 14.201C58.3327 14.363 58.9357 14.534 59.5837 14.714C60.2497 14.876 60.9067 15.074 61.5547 15.308C62.2027 15.524 62.8057 15.821 63.3637 16.199C63.9217 16.559 64.3627 17.018 64.6867 17.576C65.0107 18.134 65.1727 18.827 65.1727 19.655C65.1727 21.005 64.8037 22.184 64.0657 23.192C63.3277 24.2 62.2747 24.983 60.9067 25.541C59.5387 26.099 57.9277 26.378 56.0737 26.378ZM82.8972 7.1H88.2432L84.4632 26H79.1172L82.8972 7.1ZM71.8542 26H66.5082L70.2882 7.1H75.6342L71.8542 26ZM80.9802 18.629H72.9612L73.8522 14.201H81.8712L80.9802 18.629ZM88.2611 26L92.0411 7.1H97.3871L93.6071 26H88.2611Z" fill="white"/>
<path d="M0.432 26L-0.548581 25.8039L-0.787804 27H0.432V26ZM4.212 7.1V6.1H3.3922L3.23142 6.90388L4.212 7.1ZM8.559 7.1L9.486 6.72493L9.23314 6.1H8.559V7.1ZM13.77 19.979V20.979H15.2534L14.697 19.6039L13.77 19.979ZM11.475 19.979L10.6881 19.362L9.4202 20.979H11.475V19.979ZM21.573 7.1V6.1H21.0863L20.7861 6.48298L21.573 7.1ZM26.136 7.1L27.1171 7.29342L27.3524 6.1H26.136V7.1ZM22.41 26V27H23.2321L23.3911 26.1934L22.41 26ZM17.469 26L16.4876 25.8079L16.2543 27H17.469V26ZM19.71 14.552L19.6797 13.5525L18.882 13.5766L18.7286 14.3599L19.71 14.552ZM20.601 14.525L21.3902 15.1391L22.6959 13.4611L20.5707 13.5255L20.601 14.525ZM13.122 24.137V25.137H13.611L13.9112 24.7511L13.122 24.137ZM10.773 24.137L9.852 24.5266L10.1102 25.137H10.773V24.137ZM6.696 14.498L6.7814 13.5017L5.12889 13.36L5.775 14.8876L6.696 14.498ZM7.641 14.579L8.6214 14.776L8.84199 13.6783L7.7264 13.5827L7.641 14.579ZM5.346 26V27H6.16504L6.3264 26.197L5.346 26ZM1.41258 26.1961L5.19258 7.29611L3.23142 6.90388L-0.548581 25.8039L1.41258 26.1961ZM4.212 8.1H8.559V6.1H4.212V8.1ZM7.632 7.47507L12.843 20.3541L14.697 19.6039L9.486 6.72493L7.632 7.47507ZM13.77 18.979H11.475V20.979H13.77V18.979ZM12.2619 20.596L22.3599 7.71702L20.7861 6.48298L10.6881 19.362L12.2619 20.596ZM21.573 8.1H26.136V6.1H21.573V8.1ZM25.1549 6.90658L21.4289 25.8066L23.3911 26.1934L27.1171 7.29342L25.1549 6.90658ZM22.41 25H17.469V27H22.41V25ZM18.4504 26.1921L20.6914 14.7441L18.7286 14.3599L16.4876 25.8079L18.4504 26.1921ZM19.7403 15.5515L20.6313 15.5245L20.5707 13.5255L19.6797 13.5525L19.7403 15.5515ZM19.8118 13.9109L12.3328 23.5229L13.9112 24.7511L21.3902 15.1391L19.8118 13.9109ZM13.122 23.137H10.773V25.137H13.122V23.137ZM11.694 23.7474L7.617 14.1084L5.775 14.8876L9.852 24.5266L11.694 23.7474ZM6.6106 15.4943L7.5556 15.5753L7.7264 13.5827L6.7814 13.5017L6.6106 15.4943ZM6.6606 14.382L4.3656 25.803L6.3264 26.197L8.6214 14.776L6.6606 14.382ZM5.346 25H0.432V27H5.346V25ZM31.3767 25.325L30.9204 26.2149L30.9295 26.2194L31.3767 25.325ZM28.1367 22.382L27.2825 22.9019L27.2825 22.9019L28.1367 22.382ZM27.8667 13.526L28.7884 13.9141L28.7902 13.9098L27.8667 13.526ZM30.2967 9.935L30.9914 10.6544L30.9977 10.6482L30.2967 9.935ZM34.0227 7.559L33.6653 6.62505L33.6614 6.62656L34.0227 7.559ZM43.8237 7.802L43.3674 8.69186L43.3765 8.69643L43.8237 7.802ZM47.0637 10.718L47.9179 10.1981L47.9179 10.1981L47.0637 10.718ZM47.3337 19.601L48.2554 19.9891L48.2572 19.9848L47.3337 19.601ZM44.9037 23.192L45.5984 23.9114L45.6047 23.9052L44.9037 23.192ZM41.1507 25.541L40.7933 24.6071L40.7894 24.6086L41.1507 25.541ZM39.3417 21.437L38.9213 20.5296L38.9127 20.5337L39.3417 21.437ZM41.2047 20.006L40.4347 19.368L40.4328 19.3703L41.2047 20.006ZM42.3927 17.873L43.3393 18.1957L43.3393 18.1957L42.3927 17.873ZM42.2577 13.148L41.3789 13.6251L41.3841 13.6347L41.3895 13.6441L42.2577 13.148ZM40.7457 11.69L40.2601 12.5642L40.2744 12.5721L40.2889 12.5796L40.7457 11.69ZM33.9687 13.121L33.1987 12.483L33.1968 12.4853L33.9687 13.121ZM32.8077 15.227L31.8612 14.9043L31.8612 14.9043L32.8077 15.227ZM32.9157 19.952L32.0314 20.4188L32.0392 20.4336L32.0475 20.4481L32.9157 19.952ZM34.4277 21.437L33.9421 22.3112L33.9564 22.3191L33.9709 22.3266L34.4277 21.437ZM36.3987 25.378C34.5737 25.378 33.0599 25.0486 31.824 24.4306L30.9295 26.2194C32.5015 27.0054 34.3358 27.378 36.3987 27.378V25.378ZM31.8331 24.4352C30.5788 23.792 29.6428 22.933 28.9909 21.8621L27.2825 22.9019C28.1426 24.315 29.3667 25.418 30.9204 26.2148L31.8331 24.4352ZM28.9909 21.8621C28.342 20.7959 28.0027 19.5404 28.0027 18.062H26.0027C26.0027 19.8596 26.4195 21.4841 27.2825 22.9019L28.9909 21.8621ZM28.0027 18.062C28.0027 16.5239 28.2698 15.1458 28.7884 13.9141L26.9451 13.1379C26.3117 14.6422 26.0027 16.2881 26.0027 18.062H28.0027ZM28.7902 13.9098C29.3155 12.6457 30.0492 11.5641 30.9913 10.6544L29.6021 9.2156C28.4563 10.3219 27.57 11.6343 26.9433 13.1422L28.7902 13.9098ZM30.9977 10.6482C31.9393 9.72286 33.0639 9.003 34.3841 8.49144L33.6614 6.62656C32.1016 7.23099 30.7422 8.09514 29.5958 9.22177L30.9977 10.6482ZM34.3802 8.49294C35.7125 7.98304 37.1829 7.722 38.8017 7.722V5.722C36.9646 5.722 35.249 6.01896 33.6653 6.62506L34.3802 8.49294ZM38.8017 7.722C40.6233 7.722 42.1337 8.05912 43.3674 8.69182L44.2801 6.91218C42.7058 6.10488 40.8682 5.722 38.8017 5.722V7.722ZM43.3765 8.69643C44.6263 9.32131 45.5591 10.1694 46.2095 11.2379L47.9179 10.1981C47.0564 8.78265 45.8292 7.68669 44.271 6.90757L43.3765 8.69643ZM46.2095 11.2379C46.8585 12.3041 47.1977 13.5596 47.1977 15.038H49.1977C49.1977 13.2404 48.781 11.6159 47.9179 10.1981L46.2095 11.2379ZM47.1977 15.038C47.1977 16.5759 46.9308 17.9649 46.4103 19.2172L48.2572 19.9848C48.8887 18.4651 49.1977 16.8121 49.1977 15.038H47.1977ZM46.4121 19.2129C45.8867 20.4608 45.1511 21.5468 44.2028 22.4788L45.6047 23.9052C46.7444 22.7852 47.6288 21.4772 48.2554 19.9891L46.4121 19.2129ZM44.2091 22.4726C43.2691 23.3802 42.1353 24.0935 40.7933 24.6071L41.5082 26.4749C43.0822 25.8725 44.4504 25.0198 45.5983 23.9114L44.2091 22.4726ZM40.7894 24.6086C39.4776 25.1169 38.0178 25.378 36.3987 25.378V27.378C38.2357 27.378 39.9439 27.0811 41.5121 26.4734L40.7894 24.6086ZM36.8577 22.95C37.9165 22.95 38.8953 22.7561 39.7708 22.3403L38.9127 20.5337C38.3482 20.8019 37.671 20.95 36.8577 20.95V22.95ZM39.7622 22.3443C40.6326 21.941 41.3748 21.3725 41.9767 20.6417L40.4328 19.3703C40.0266 19.8635 39.5269 20.249 38.9213 20.5297L39.7622 22.3443ZM41.9748 20.644C42.576 19.9184 43.031 19.1 43.3393 18.1957L41.4462 17.5503C41.2145 18.23 40.8775 18.8336 40.4347 19.368L41.9748 20.644ZM43.3393 18.1957C43.6465 17.2943 43.7977 16.3478 43.7977 15.362H41.7977C41.7977 16.1402 41.6789 16.8677 41.4462 17.5503L43.3393 18.1957ZM43.7977 15.362C43.7977 14.3711 43.5857 13.4564 43.126 12.6519L41.3895 13.6441C41.6498 14.0996 41.7977 14.6609 41.7977 15.362H43.7977ZM43.1366 12.6709C42.6942 11.856 42.0391 11.23 41.2025 10.8004L40.2889 12.5796C40.7844 12.834 41.1373 13.18 41.3789 13.6251L43.1366 12.6709ZM41.2314 10.8158C40.3982 10.3529 39.4191 10.15 38.3427 10.15V12.15C39.1744 12.15 39.7973 12.3071 40.2601 12.5642L41.2314 10.8158ZM38.3427 10.15C37.2983 10.15 36.324 10.3452 35.4383 10.7557L36.2792 12.5703C36.8694 12.2968 37.5512 12.15 38.3427 12.15V10.15ZM35.4383 10.7557C34.5643 11.1607 33.8152 11.739 33.1987 12.483L34.7388 13.759C35.1663 13.243 35.6771 12.8493 36.2792 12.5703L35.4383 10.7557ZM33.1968 12.4853C32.6121 13.1953 32.1679 14.0047 31.8612 14.9043L33.7543 15.5497C33.9876 14.8653 34.3174 14.2707 34.7407 13.7567L33.1968 12.4853ZM31.8612 14.9043C31.5539 15.8057 31.4027 16.7522 31.4027 17.738H33.4027C33.4027 16.9598 33.5215 16.2323 33.7543 15.5497L31.8612 14.9043ZM31.4027 17.738C31.4027 18.7073 31.604 19.6091 32.0314 20.4188L33.8001 19.4852C33.5435 18.9989 33.4027 18.4247 33.4027 17.738H31.4027ZM32.0475 20.4481C32.5002 21.2403 33.1381 21.8645 33.9421 22.3112L34.9134 20.5628C34.4214 20.2895 34.0513 19.9237 33.784 19.4559L32.0475 20.4481ZM33.9709 22.3266C34.8117 22.7583 35.7872 22.95 36.8577 22.95V20.95C36.0202 20.95 35.3758 20.7997 34.8845 20.5474L33.9709 22.3266ZM52.9687 26.108L53.1476 25.1241L53.1389 25.1226L53.1302 25.1211L52.9687 26.108ZM50.2687 25.406L49.8973 26.3345L49.9063 26.3381L49.9153 26.3415L50.2687 25.406ZM48.1897 24.353L47.3051 23.8868L46.8815 24.6905L47.6411 25.189L48.1897 24.353ZM50.2957 20.357L50.8172 19.5037L49.9079 18.9481L49.4111 19.8908L50.2957 20.357ZM52.2937 21.383L51.9057 22.3046L51.9201 22.3107L51.9347 22.3163L52.2937 21.383ZM54.4267 22.004L54.2306 22.9846L54.2306 22.9846L54.4267 22.004ZM58.3417 22.031L58.5927 22.999L58.6093 22.9947L58.6258 22.9898L58.3417 22.031ZM59.4487 21.437L58.7416 20.7299L58.7416 20.7299L59.4487 21.437ZM59.3137 19.655L58.7282 20.4657L58.7534 20.4839L58.7797 20.5005L59.3137 19.655ZM58.0177 19.061L57.7304 20.0188L57.7304 20.0188L58.0177 19.061ZM56.2087 18.575L55.9411 19.5385L55.9567 19.5428L55.9724 19.5467L56.2087 18.575ZM54.2377 17.954L53.8753 18.886L53.8907 18.892L53.9062 18.8975L54.2377 17.954ZM52.4557 17.036L51.8823 17.8552L51.8916 17.8617L51.901 17.868L52.4557 17.036ZM51.1327 15.605L50.2612 16.0953L50.2669 16.1055L50.2729 16.1155L51.1327 15.605ZM54.8857 7.559L54.508 6.63305L54.5037 6.63483L54.8857 7.559ZM63.4987 7.154L63.2597 8.12501L63.2668 8.12675L63.2739 8.12839L63.4987 7.154ZM66.5227 8.342L67.4208 8.78187L67.8198 7.96727L67.0478 7.49096L66.5227 8.342ZM64.5787 12.311L64.0432 13.1555L64.9858 13.7533L65.4768 12.7509L64.5787 12.311ZM62.1217 11.258L61.847 12.2195L61.8585 12.2228L61.8701 12.2258L62.1217 11.258ZM57.5317 11.123L57.2353 10.1679L57.2257 10.171L57.5317 11.123ZM56.3707 11.798L55.6412 11.1141L55.6397 11.1157L56.3707 11.798ZM56.4787 13.607L57.0642 12.7963L57.0642 12.7963L56.4787 13.607ZM57.7747 14.201L57.4874 15.1589L57.4959 15.1613L57.7747 14.201ZM59.5837 14.714L59.3161 15.6775L59.3317 15.6818L59.3474 15.6857L59.5837 14.714ZM61.5547 15.308L61.2151 16.2486L61.2267 16.2528L61.2385 16.2567L61.5547 15.308ZM63.3637 16.199L62.8029 17.0269L62.8122 17.0332L62.8216 17.0393L63.3637 16.199ZM64.6867 17.576L63.8219 18.0781L63.8219 18.0781L64.6867 17.576ZM64.0657 23.192L64.8726 23.7827L64.8726 23.7827L64.0657 23.192ZM60.9067 25.541L61.2844 26.4669L61.2844 26.4669L60.9067 25.541ZM56.0737 25.378C55.0494 25.378 54.0745 25.2926 53.1476 25.1241L52.7898 27.0919C53.843 27.2834 54.9381 27.378 56.0737 27.378V25.378ZM53.1302 25.1211C52.1957 24.9682 51.3612 24.7497 50.6221 24.4705L49.9153 26.3415C50.7963 26.6743 51.7618 26.9238 52.8072 27.0949L53.1302 25.1211ZM50.6401 24.4775C49.8766 24.1721 49.2461 23.8501 48.7384 23.517L47.6411 25.189C48.2854 25.6119 49.0409 25.9919 49.8973 26.3345L50.6401 24.4775ZM49.0744 24.8192L51.1804 20.8232L49.4111 19.8908L47.3051 23.8868L49.0744 24.8192ZM49.7743 21.2103C50.464 21.6318 51.1745 21.9968 51.9057 22.3046L52.6818 20.4614C52.045 20.1932 51.4235 19.8742 50.8172 19.5037L49.7743 21.2103ZM51.9347 22.3163C52.6883 22.6062 53.4537 22.8292 54.2306 22.9846L54.6228 21.0234C53.9597 20.8908 53.3031 20.6998 52.6527 20.4497L51.9347 22.3163ZM54.2306 22.9846C55.0139 23.1412 55.7996 23.22 56.5867 23.22V21.22C55.9339 21.22 55.2796 21.1548 54.6228 21.0234L54.2306 22.9846ZM56.5867 23.22C57.3271 23.22 58.0012 23.1523 58.5927 22.999L58.0908 21.063C57.7102 21.1617 57.2144 21.22 56.5867 21.22V23.22ZM58.6258 22.9898C59.2082 22.8172 59.7467 22.5532 60.1558 22.1441L58.7416 20.7299C58.6467 20.8248 58.4473 20.9568 58.0576 21.0722L58.6258 22.9898ZM60.1558 22.1441C60.5866 21.7134 60.8267 21.1654 60.8267 20.546H58.8267C58.8267 20.6106 58.8149 20.6566 58.7416 20.7299L60.1558 22.1441ZM60.8267 20.546C60.8267 19.797 60.4554 19.1933 59.8477 18.8095L58.7797 20.5005C58.8096 20.5194 58.8249 20.5332 58.8311 20.5393C58.8367 20.545 58.8354 20.5449 58.8319 20.5387C58.8282 20.5323 58.826 20.5262 58.8253 20.5233C58.8247 20.5208 58.8267 20.5273 58.8267 20.546H60.8267ZM59.8992 18.8443C59.456 18.5242 58.9116 18.2851 58.3051 18.1032L57.7304 20.0188C58.2038 20.1609 58.5235 20.3178 58.7282 20.4657L59.8992 18.8443ZM58.3051 18.1032C57.7451 17.9352 57.1247 17.7686 56.4451 17.6033L55.9724 19.5467C56.6248 19.7054 57.2104 19.8628 57.7304 20.0188L58.3051 18.1032ZM56.4764 17.6115C55.8509 17.4377 55.2152 17.2375 54.5692 17.0105L53.9062 18.8975C54.5923 19.1385 55.2706 19.3523 55.9411 19.5385L56.4764 17.6115ZM54.6002 17.022C54.0149 16.7944 53.486 16.521 53.0104 16.2039L51.901 17.868C52.5054 18.271 53.1645 18.6096 53.8753 18.886L54.6002 17.022ZM53.0292 16.2168C52.6074 15.9215 52.2633 15.5504 51.9926 15.0945L50.2729 16.1155C50.6861 16.8115 51.224 17.3945 51.8823 17.8552L53.0292 16.2168ZM52.0043 15.1147C51.7849 14.7247 51.6467 14.1933 51.6467 13.472H49.6467C49.6467 14.4427 49.8326 15.3333 50.2612 16.0953L52.0043 15.1147ZM51.6467 13.472C51.6467 12.2952 51.9601 11.3189 52.5606 10.4987L50.9469 9.31726C50.0714 10.5131 49.6467 11.9128 49.6467 13.472H51.6467ZM52.5606 10.4987C53.173 9.66224 54.0581 8.98312 55.2677 8.48317L54.5037 6.63483C53.0133 7.25088 51.8104 8.13776 50.9469 9.31726L52.5606 10.4987ZM55.2634 8.48493C56.4852 7.98657 57.9624 7.722 59.7187 7.722V5.722C57.767 5.722 56.0223 6.01542 54.508 6.63306L55.2634 8.48493ZM59.7187 7.722C60.9977 7.722 62.1766 7.85841 63.2597 8.12501L63.7377 6.18298C62.4808 5.87358 61.1398 5.722 59.7187 5.722V7.722ZM63.2739 8.12839C64.3591 8.37883 65.2613 8.7387 65.9976 9.19303L67.0478 7.49096C66.0922 6.9013 64.9784 6.46917 63.7236 6.17961L63.2739 8.12839ZM65.6247 7.90213L63.6807 11.8711L65.4768 12.7509L67.4208 8.78187L65.6247 7.90213ZM65.1143 11.4665C64.2831 10.9394 63.3674 10.5486 62.3734 10.2902L61.8701 12.2258C62.6761 12.4354 63.3983 12.7466 64.0432 13.1555L65.1143 11.4665ZM62.3964 10.2965C61.4233 10.0184 60.4217 9.88 59.3947 9.88V11.88C60.2397 11.88 61.0562 11.9936 61.847 12.2195L62.3964 10.2965ZM59.3947 9.88C58.6041 9.88 57.8782 9.96842 57.2353 10.1679L57.8281 12.0781C58.2292 11.9536 58.7453 11.88 59.3947 11.88V9.88ZM57.2257 10.171C56.6131 10.3679 56.0602 10.6671 55.6412 11.1141L57.1003 12.4819C57.2212 12.3529 57.4424 12.2021 57.8377 12.075L57.2257 10.171ZM55.6397 11.1157C55.2299 11.5547 54.9927 12.0994 54.9927 12.716H56.9927C56.9927 12.6486 57.0075 12.5813 57.1018 12.4803L55.6397 11.1157ZM54.9927 12.716C54.9927 13.436 55.3422 14.0197 55.8932 14.4177L57.0642 12.7963C57.0015 12.751 56.9898 12.7257 56.9921 12.7299C56.9928 12.7311 56.9937 12.7334 56.994 12.7348C56.9943 12.7358 56.9927 12.7305 56.9927 12.716H54.9927ZM55.8932 14.4177C56.3365 14.7378 56.8808 14.9769 57.4874 15.1588L58.0621 13.2432C57.5886 13.1011 57.269 12.9442 57.0642 12.7963L55.8932 14.4177ZM57.4959 15.1613C58.0582 15.3246 58.6649 15.4966 59.3161 15.6775L59.8514 13.7505C59.2065 13.5714 58.6073 13.4014 58.0535 13.2407L57.4959 15.1613ZM59.3474 15.6857C59.9782 15.8391 60.6008 16.0267 61.2151 16.2486L61.8944 14.3674C61.2127 14.1213 60.5212 13.9129 59.8201 13.7423L59.3474 15.6857ZM61.2385 16.2567C61.801 16.4442 62.3215 16.7009 62.8029 17.0269L63.9246 15.3711C63.2899 14.9411 62.6044 14.6038 61.871 14.3593L61.2385 16.2567ZM62.8216 17.0393C63.2509 17.3162 63.5796 17.6608 63.8219 18.0781L65.5515 17.0739C65.1458 16.3752 64.5926 15.8018 63.9059 15.3587L62.8216 17.0393ZM63.8219 18.0781C64.0357 18.4462 64.1727 18.9544 64.1727 19.655H66.1727C66.1727 18.6996 65.9858 17.8218 65.5515 17.0739L63.8219 18.0781ZM64.1727 19.655C64.1727 20.8107 63.8611 21.7787 63.2589 22.6013L64.8726 23.7827C65.7464 22.5893 66.1727 21.1993 66.1727 19.655H64.1727ZM63.2589 22.6013C62.6487 23.4346 61.7574 24.114 60.529 24.6151L61.2844 26.4669C62.7921 25.852 64.0067 24.9654 64.8726 23.7827L63.2589 22.6013ZM60.529 24.6151C59.3073 25.1134 57.83 25.378 56.0737 25.378V27.378C58.0254 27.378 59.7702 27.0846 61.2844 26.4669L60.529 24.6151ZM82.8972 7.1V6.1H82.0774L81.9166 6.90388L82.8972 7.1ZM88.2432 7.1L89.2238 7.29611L89.463 6.1H88.2432V7.1ZM84.4632 26V27H85.283L85.4438 26.1961L84.4632 26ZM79.1172 26L78.1366 25.8039L77.8974 27H79.1172V26ZM71.8542 26V27H72.674L72.8348 26.1961L71.8542 26ZM66.5082 26L65.5276 25.8039L65.2884 27H66.5082V26ZM70.2882 7.1V6.1H69.4684L69.3076 6.90388L70.2882 7.1ZM75.6342 7.1L76.6148 7.29611L76.854 6.1H75.6342V7.1ZM80.9802 18.629V19.629H81.799L81.9605 18.8263L80.9802 18.629ZM72.9612 18.629L71.9808 18.4317L71.7399 19.629H72.9612V18.629ZM73.8522 14.201V13.201H73.0333L72.8718 14.0037L73.8522 14.201ZM81.8712 14.201L82.8515 14.3983L83.0924 13.201H81.8712V14.201ZM82.8972 8.1H88.2432V6.1H82.8972V8.1ZM87.2626 6.90388L83.4826 25.8039L85.4438 26.1961L89.2238 7.29611L87.2626 6.90388ZM84.4632 25H79.1172V27H84.4632V25ZM80.0978 26.1961L83.8778 7.29611L81.9166 6.90388L78.1366 25.8039L80.0978 26.1961ZM71.8542 25H66.5082V27H71.8542V25ZM67.4888 26.1961L71.2688 7.29611L69.3076 6.90388L65.5276 25.8039L67.4888 26.1961ZM70.2882 8.1H75.6342V6.1H70.2882V8.1ZM74.6536 6.90388L70.8736 25.8039L72.8348 26.1961L76.6148 7.29611L74.6536 6.90388ZM80.9802 17.629H72.9612V19.629H80.9802V17.629ZM73.9415 18.8263L74.8325 14.3983L72.8718 14.0037L71.9808 18.4317L73.9415 18.8263ZM73.8522 15.201H81.8712V13.201H73.8522V15.201ZM80.8908 14.0037L79.9998 18.4317L81.9605 18.8263L82.8515 14.3983L80.8908 14.0037ZM88.2611 26L87.2805 25.8039L87.0413 27H88.2611V26ZM92.0411 7.1V6.1H91.2213L91.0605 6.90388L92.0411 7.1ZM97.3871 7.1L98.3677 7.29611L98.6069 6.1H97.3871V7.1ZM93.6071 26V27H94.4269L94.5877 26.1961L93.6071 26ZM89.2417 26.1961L93.0217 7.29611L91.0605 6.90388L87.2805 25.8039L89.2417 26.1961ZM92.0411 8.1H97.3871V6.1H92.0411V8.1ZM96.4065 6.90388L92.6265 25.8039L94.5877 26.1961L98.3677 7.29611L96.4065 6.90388ZM93.6071 25H88.2611V27H93.6071V25Z" fill="white" mask="url(#path-1-outside-1_59_630)"/>
<mask id="path-3-outside-2_59_630" maskUnits="userSpaceOnUse" x="99.3774" y="5" width="100" height="23" fill="black">
<rect fill="white" x="99.3774" y="5" width="100" height="23"/>
<path d="M100.809 26L104.589 7.1H108.936L114.147 19.979H111.852L121.95 7.1H126.513L122.787 26H117.846L120.087 14.552L120.978 14.525L113.499 24.137H111.15L107.073 14.498L108.018 14.579L105.723 26H100.809ZM136.776 26.378C134.832 26.378 133.158 26.027 131.754 25.325C130.35 24.605 129.27 23.624 128.514 22.382C127.758 21.14 127.38 19.7 127.38 18.062C127.38 16.406 127.668 14.894 128.244 13.526C128.82 12.14 129.63 10.943 130.674 9.935C131.718 8.909 132.96 8.117 134.4 7.559C135.858 7.001 137.451 6.722 139.179 6.722C141.123 6.722 142.797 7.082 144.201 7.802C145.605 8.504 146.685 9.476 147.441 10.718C148.197 11.96 148.575 13.4 148.575 15.038C148.575 16.694 148.287 18.215 147.711 19.601C147.135 20.969 146.325 22.166 145.281 23.192C144.237 24.2 142.986 24.983 141.528 25.541C140.088 26.099 138.504 26.378 136.776 26.378ZM137.235 21.95C138.171 21.95 138.999 21.779 139.719 21.437C140.457 21.095 141.078 20.618 141.582 20.006C142.104 19.376 142.5 18.665 142.77 17.873C143.04 17.081 143.175 16.244 143.175 15.362C143.175 14.516 142.995 13.778 142.635 13.148C142.293 12.518 141.789 12.032 141.123 11.69C140.475 11.33 139.674 11.15 138.72 11.15C137.802 11.15 136.974 11.321 136.236 11.663C135.498 12.005 134.868 12.491 134.346 13.121C133.842 13.733 133.455 14.435 133.185 15.227C132.915 16.019 132.78 16.856 132.78 17.738C132.78 18.566 132.951 19.304 133.293 19.952C133.653 20.582 134.157 21.077 134.805 21.437C135.471 21.779 136.281 21.95 137.235 21.95ZM156.451 26.378C155.371 26.378 154.336 26.288 153.346 26.108C152.356 25.946 151.456 25.712 150.646 25.406C149.836 25.082 149.143 24.731 148.567 24.353L150.673 20.357C151.321 20.753 151.987 21.095 152.671 21.383C153.373 21.653 154.084 21.86 154.804 22.004C155.524 22.148 156.244 22.22 156.964 22.22C157.648 22.22 158.233 22.157 158.719 22.031C159.205 21.887 159.574 21.689 159.826 21.437C160.078 21.185 160.204 20.888 160.204 20.546C160.204 20.168 160.033 19.871 159.691 19.655C159.367 19.421 158.935 19.223 158.395 19.061C157.855 18.899 157.252 18.737 156.586 18.575C155.938 18.395 155.281 18.188 154.615 17.954C153.967 17.702 153.373 17.396 152.833 17.036C152.293 16.658 151.852 16.181 151.51 15.605C151.186 15.029 151.024 14.318 151.024 13.472C151.024 12.104 151.393 10.916 152.131 9.908C152.869 8.9 153.913 8.117 155.263 7.559C156.631 7.001 158.242 6.722 160.096 6.722C161.446 6.722 162.706 6.866 163.876 7.154C165.046 7.424 166.054 7.82 166.9 8.342L164.956 12.311C164.218 11.843 163.399 11.492 162.499 11.258C161.617 11.006 160.708 10.88 159.772 10.88C159.052 10.88 158.431 10.961 157.909 11.123C157.405 11.285 157.018 11.51 156.748 11.798C156.496 12.068 156.37 12.374 156.37 12.716C156.37 13.076 156.532 13.373 156.856 13.607C157.18 13.841 157.612 14.039 158.152 14.201C158.71 14.363 159.313 14.534 159.961 14.714C160.627 14.876 161.284 15.074 161.932 15.308C162.58 15.524 163.183 15.821 163.741 16.199C164.299 16.559 164.74 17.018 165.064 17.576C165.388 18.134 165.55 18.827 165.55 19.655C165.55 21.005 165.181 22.184 164.443 23.192C163.705 24.2 162.652 24.983 161.284 25.541C159.916 26.099 158.305 26.378 156.451 26.378ZM183.275 7.1H188.621L184.841 26H179.495L183.275 7.1ZM172.232 26H166.886L170.666 7.1H176.012L172.232 26ZM181.358 18.629H173.339L174.23 14.201H182.249L181.358 18.629ZM188.638 26L192.418 7.1H197.764L193.984 26H188.638Z"/>
</mask>
<path d="M100.809 26L99.8288 25.8039L99.5896 27H100.809V26ZM104.589 7.1V6.1H103.77L103.609 6.90388L104.589 7.1ZM108.936 7.1L109.863 6.72493L109.611 6.1H108.936V7.1ZM114.147 19.979V20.979H115.631L115.074 19.6039L114.147 19.979ZM111.852 19.979L111.065 19.362L109.798 20.979H111.852V19.979ZM121.95 7.1V6.1H121.464L121.163 6.48298L121.95 7.1ZM126.513 7.1L127.494 7.29342L127.73 6.1H126.513V7.1ZM122.787 26V27H123.609L123.768 26.1934L122.787 26ZM117.846 26L116.865 25.8079L116.632 27H117.846V26ZM120.087 14.552L120.057 13.5525L119.259 13.5766L119.106 14.3599L120.087 14.552ZM120.978 14.525L121.768 15.1391L123.073 13.4611L120.948 13.5255L120.978 14.525ZM113.499 24.137V25.137H113.988L114.289 24.7511L113.499 24.137ZM111.15 24.137L110.229 24.5266L110.488 25.137H111.15V24.137ZM107.073 14.498L107.159 13.5017L105.506 13.36L106.152 14.8876L107.073 14.498ZM108.018 14.579L108.999 14.776L109.219 13.6783L108.104 13.5827L108.018 14.579ZM105.723 26V27H106.542L106.704 26.197L105.723 26ZM101.79 26.1961L105.57 7.29611L103.609 6.90388L99.8288 25.8039L101.79 26.1961ZM104.589 8.1H108.936V6.1H104.589V8.1ZM108.009 7.47507L113.22 20.3541L115.074 19.6039L109.863 6.72493L108.009 7.47507ZM114.147 18.979H111.852V20.979H114.147V18.979ZM112.639 20.596L122.737 7.71702L121.163 6.48298L111.065 19.362L112.639 20.596ZM121.95 8.1H126.513V6.1H121.95V8.1ZM125.532 6.90658L121.806 25.8066L123.768 26.1934L127.494 7.29342L125.532 6.90658ZM122.787 25H117.846V27H122.787V25ZM118.828 26.1921L121.069 14.7441L119.106 14.3599L116.865 25.8079L118.828 26.1921ZM120.118 15.5515L121.009 15.5245L120.948 13.5255L120.057 13.5525L120.118 15.5515ZM120.189 13.9109L112.71 23.5229L114.289 24.7511L121.768 15.1391L120.189 13.9109ZM113.499 23.137H111.15V25.137H113.499V23.137ZM112.071 23.7474L107.994 14.1084L106.152 14.8876L110.229 24.5266L112.071 23.7474ZM106.988 15.4943L107.933 15.5753L108.104 13.5827L107.159 13.5017L106.988 15.4943ZM107.038 14.382L104.743 25.803L106.704 26.197L108.999 14.776L107.038 14.382ZM105.723 25H100.809V27H105.723V25ZM131.754 25.325L131.298 26.2149L131.307 26.2194L131.754 25.325ZM128.514 22.382L127.66 22.9019L127.66 22.9019L128.514 22.382ZM128.244 13.526L129.166 13.9141L129.168 13.9098L128.244 13.526ZM130.674 9.935L131.369 10.6544L131.375 10.6482L130.674 9.935ZM134.4 7.559L134.043 6.62505L134.039 6.62656L134.4 7.559ZM144.201 7.802L143.745 8.69186L143.754 8.69643L144.201 7.802ZM147.441 10.718L148.295 10.1981L148.295 10.1981L147.441 10.718ZM147.711 19.601L148.633 19.9891L148.635 19.9848L147.711 19.601ZM145.281 23.192L145.976 23.9114L145.982 23.9052L145.281 23.192ZM141.528 25.541L141.171 24.6071L141.167 24.6086L141.528 25.541ZM139.719 21.437L139.299 20.5296L139.29 20.5337L139.719 21.437ZM141.582 20.006L140.812 19.368L140.81 19.3703L141.582 20.006ZM142.77 17.873L143.717 18.1957L143.717 18.1957L142.77 17.873ZM142.635 13.148L141.756 13.6251L141.761 13.6347L141.767 13.6441L142.635 13.148ZM141.123 11.69L140.637 12.5642L140.652 12.5721L140.666 12.5796L141.123 11.69ZM134.346 13.121L133.576 12.483L133.574 12.4853L134.346 13.121ZM133.185 15.227L132.239 14.9043L132.239 14.9043L133.185 15.227ZM133.293 19.952L132.409 20.4188L132.417 20.4336L132.425 20.4481L133.293 19.952ZM134.805 21.437L134.319 22.3112L134.334 22.3191L134.348 22.3266L134.805 21.437ZM136.776 25.378C134.951 25.378 133.437 25.0486 132.201 24.4306L131.307 26.2194C132.879 27.0054 134.713 27.378 136.776 27.378V25.378ZM132.21 24.4352C130.956 23.792 130.02 22.933 129.368 21.8621L127.66 22.9019C128.52 24.315 129.744 25.418 131.298 26.2148L132.21 24.4352ZM129.368 21.8621C128.719 20.7959 128.38 19.5404 128.38 18.062H126.38C126.38 19.8596 126.797 21.4841 127.66 22.9019L129.368 21.8621ZM128.38 18.062C128.38 16.5239 128.647 15.1458 129.166 13.9141L127.322 13.1379C126.689 14.6422 126.38 16.2881 126.38 18.062H128.38ZM129.168 13.9098C129.693 12.6457 130.427 11.5641 131.369 10.6544L129.98 9.2156C128.834 10.3219 127.947 11.6343 127.321 13.1422L129.168 13.9098ZM131.375 10.6482C132.317 9.72286 133.441 9.003 134.761 8.49144L134.039 6.62656C132.479 7.23099 131.12 8.09514 129.973 9.22177L131.375 10.6482ZM134.758 8.49294C136.09 7.98304 137.56 7.722 139.179 7.722V5.722C137.342 5.722 135.626 6.01896 134.043 6.62506L134.758 8.49294ZM139.179 7.722C141.001 7.722 142.511 8.05912 143.745 8.69182L144.657 6.91218C143.083 6.10488 141.246 5.722 139.179 5.722V7.722ZM143.754 8.69643C145.004 9.32131 145.936 10.1694 146.587 11.2379L148.295 10.1981C147.434 8.78265 146.207 7.68669 144.648 6.90757L143.754 8.69643ZM146.587 11.2379C147.236 12.3041 147.575 13.5596 147.575 15.038H149.575C149.575 13.2404 149.158 11.6159 148.295 10.1981L146.587 11.2379ZM147.575 15.038C147.575 16.5759 147.308 17.9649 146.788 19.2172L148.635 19.9848C149.266 18.4651 149.575 16.8121 149.575 15.038H147.575ZM146.789 19.2129C146.264 20.4608 145.528 21.5468 144.58 22.4788L145.982 23.9052C147.122 22.7852 148.006 21.4772 148.633 19.9891L146.789 19.2129ZM144.587 22.4726C143.646 23.3802 142.513 24.0935 141.171 24.6071L141.886 26.4749C143.46 25.8725 144.828 25.0198 145.976 23.9114L144.587 22.4726ZM141.167 24.6086C139.855 25.1169 138.395 25.378 136.776 25.378V27.378C138.613 27.378 140.321 27.0811 141.889 26.4734L141.167 24.6086ZM137.235 22.95C138.294 22.95 139.273 22.7561 140.148 22.3403L139.29 20.5337C138.726 20.8019 138.048 20.95 137.235 20.95V22.95ZM140.14 22.3443C141.01 21.941 141.752 21.3725 142.354 20.6417L140.81 19.3703C140.404 19.8635 139.904 20.249 139.299 20.5297L140.14 22.3443ZM142.352 20.644C142.953 19.9184 143.408 19.1 143.717 18.1957L141.824 17.5503C141.592 18.23 141.255 18.8336 140.812 19.368L142.352 20.644ZM143.717 18.1957C144.024 17.2943 144.175 16.3478 144.175 15.362H142.175C142.175 16.1402 142.056 16.8677 141.824 17.5503L143.717 18.1957ZM144.175 15.362C144.175 14.3711 143.963 13.4564 143.503 12.6519L141.767 13.6441C142.027 14.0996 142.175 14.6609 142.175 15.362H144.175ZM143.514 12.6709C143.072 11.856 142.416 11.23 141.58 10.8004L140.666 12.5796C141.162 12.834 141.515 13.18 141.756 13.6251L143.514 12.6709ZM141.609 10.8158C140.776 10.3529 139.797 10.15 138.72 10.15V12.15C139.552 12.15 140.175 12.3071 140.637 12.5642L141.609 10.8158ZM138.72 10.15C137.676 10.15 136.701 10.3452 135.816 10.7557L136.657 12.5703C137.247 12.2968 137.929 12.15 138.72 12.15V10.15ZM135.816 10.7557C134.942 11.1607 134.193 11.739 133.576 12.483L135.116 13.759C135.544 13.243 136.055 12.8493 136.657 12.5703L135.816 10.7557ZM133.574 12.4853C132.989 13.1953 132.545 14.0047 132.239 14.9043L134.132 15.5497C134.365 14.8653 134.695 14.2707 135.118 13.7567L133.574 12.4853ZM132.239 14.9043C131.931 15.8057 131.78 16.7522 131.78 17.738H133.78C133.78 16.9598 133.899 16.2323 134.132 15.5497L132.239 14.9043ZM131.78 17.738C131.78 18.7073 131.981 19.6091 132.409 20.4188L134.178 19.4852C133.921 18.9989 133.78 18.4247 133.78 17.738H131.78ZM132.425 20.4481C132.878 21.2403 133.515 21.8645 134.319 22.3112L135.291 20.5628C134.799 20.2895 134.429 19.9237 134.161 19.4559L132.425 20.4481ZM134.348 22.3266C135.189 22.7583 136.165 22.95 137.235 22.95V20.95C136.398 20.95 135.753 20.7997 135.262 20.5474L134.348 22.3266ZM153.346 26.108L153.525 25.1241L153.516 25.1226L153.508 25.1211L153.346 26.108ZM150.646 25.406L150.275 26.3345L150.284 26.3381L150.293 26.3415L150.646 25.406ZM148.567 24.353L147.682 23.8868L147.259 24.6905L148.018 25.189L148.567 24.353ZM150.673 20.357L151.195 19.5037L150.285 18.9481L149.788 19.8908L150.673 20.357ZM152.671 21.383L152.283 22.3046L152.297 22.3107L152.312 22.3163L152.671 21.383ZM154.804 22.004L154.608 22.9846L154.608 22.9846L154.804 22.004ZM158.719 22.031L158.97 22.999L158.987 22.9947L159.003 22.9898L158.719 22.031ZM159.826 21.437L159.119 20.7299L159.119 20.7299L159.826 21.437ZM159.691 19.655L159.106 20.4657L159.131 20.4839L159.157 20.5005L159.691 19.655ZM158.395 19.061L158.108 20.0188L158.108 20.0188L158.395 19.061ZM156.586 18.575L156.318 19.5385L156.334 19.5428L156.35 19.5467L156.586 18.575ZM154.615 17.954L154.253 18.886L154.268 18.892L154.284 18.8975L154.615 17.954ZM152.833 17.036L152.26 17.8552L152.269 17.8617L152.278 17.868L152.833 17.036ZM151.51 15.605L150.639 16.0953L150.644 16.1055L150.65 16.1155L151.51 15.605ZM155.263 7.559L154.885 6.63305L154.881 6.63483L155.263 7.559ZM163.876 7.154L163.637 8.12501L163.644 8.12675L163.651 8.12839L163.876 7.154ZM166.9 8.342L167.798 8.78187L168.197 7.96727L167.425 7.49096L166.9 8.342ZM164.956 12.311L164.421 13.1555L165.363 13.7533L165.854 12.7509L164.956 12.311ZM162.499 11.258L162.224 12.2195L162.236 12.2228L162.247 12.2258L162.499 11.258ZM157.909 11.123L157.613 10.1679L157.603 10.171L157.909 11.123ZM156.748 11.798L156.019 11.1141L156.017 11.1157L156.748 11.798ZM156.856 13.607L157.442 12.7963L157.442 12.7963L156.856 13.607ZM158.152 14.201L157.865 15.1589L157.873 15.1613L158.152 14.201ZM159.961 14.714L159.693 15.6775L159.709 15.6818L159.725 15.6857L159.961 14.714ZM161.932 15.308L161.592 16.2486L161.604 16.2528L161.616 16.2567L161.932 15.308ZM163.741 16.199L163.18 17.0269L163.19 17.0332L163.199 17.0393L163.741 16.199ZM165.064 17.576L164.199 18.0781L164.199 18.0781L165.064 17.576ZM164.443 23.192L165.25 23.7827L165.25 23.7827L164.443 23.192ZM161.284 25.541L161.662 26.4669L161.662 26.4669L161.284 25.541ZM156.451 25.378C155.427 25.378 154.452 25.2926 153.525 25.1241L153.167 27.0919C154.22 27.2834 155.315 27.378 156.451 27.378V25.378ZM153.508 25.1211C152.573 24.9682 151.739 24.7497 151 24.4705L150.293 26.3415C151.174 26.6743 152.139 26.9238 153.185 27.0949L153.508 25.1211ZM151.017 24.4775C150.254 24.1721 149.623 23.8501 149.116 23.517L148.018 25.189C148.663 25.6119 149.418 25.9919 150.275 26.3345L151.017 24.4775ZM149.452 24.8192L151.558 20.8232L149.788 19.8908L147.682 23.8868L149.452 24.8192ZM150.152 21.2103C150.841 21.6318 151.552 21.9968 152.283 22.3046L153.059 20.4614C152.422 20.1932 151.801 19.8742 151.195 19.5037L150.152 21.2103ZM152.312 22.3163C153.066 22.6062 153.831 22.8292 154.608 22.9846L155 21.0234C154.337 20.8908 153.681 20.6998 153.03 20.4497L152.312 22.3163ZM154.608 22.9846C155.391 23.1412 156.177 23.22 156.964 23.22V21.22C156.311 21.22 155.657 21.1548 155 21.0234L154.608 22.9846ZM156.964 23.22C157.704 23.22 158.379 23.1523 158.97 22.999L158.468 21.063C158.088 21.1617 157.592 21.22 156.964 21.22V23.22ZM159.003 22.9898C159.586 22.8172 160.124 22.5532 160.533 22.1441L159.119 20.7299C159.024 20.8248 158.825 20.9568 158.435 21.0722L159.003 22.9898ZM160.533 22.1441C160.964 21.7134 161.204 21.1654 161.204 20.546H159.204C159.204 20.6106 159.192 20.6566 159.119 20.7299L160.533 22.1441ZM161.204 20.546C161.204 19.797 160.833 19.1933 160.225 18.8095L159.157 20.5005C159.187 20.5194 159.202 20.5332 159.208 20.5393C159.214 20.545 159.213 20.5449 159.209 20.5387C159.206 20.5323 159.203 20.5262 159.203 20.5233C159.202 20.5208 159.204 20.5273 159.204 20.546H161.204ZM160.277 18.8443C159.833 18.5242 159.289 18.2851 158.682 18.1032L158.108 20.0188C158.581 20.1609 158.901 20.3178 159.106 20.4657L160.277 18.8443ZM158.682 18.1032C158.122 17.9352 157.502 17.7686 156.822 17.6033L156.35 19.5467C157.002 19.7054 157.588 19.8628 158.108 20.0188L158.682 18.1032ZM156.854 17.6115C156.228 17.4377 155.593 17.2375 154.947 17.0105L154.284 18.8975C154.97 19.1385 155.648 19.3523 156.318 19.5385L156.854 17.6115ZM154.978 17.022C154.392 16.7944 153.863 16.521 153.388 16.2039L152.278 17.868C152.883 18.271 153.542 18.6096 154.253 18.886L154.978 17.022ZM153.407 16.2168C152.985 15.9215 152.641 15.5504 152.37 15.0945L150.65 16.1155C151.064 16.8115 151.601 17.3945 152.26 17.8552L153.407 16.2168ZM152.382 15.1147C152.162 14.7247 152.024 14.1933 152.024 13.472H150.024C150.024 14.4427 150.21 15.3333 150.639 16.0953L152.382 15.1147ZM152.024 13.472C152.024 12.2952 152.337 11.3189 152.938 10.4987L151.324 9.31726C150.449 10.5131 150.024 11.9128 150.024 13.472H152.024ZM152.938 10.4987C153.55 9.66224 154.436 8.98312 155.645 8.48317L154.881 6.63483C153.391 7.25088 152.188 8.13776 151.324 9.31726L152.938 10.4987ZM155.641 8.48493C156.863 7.98657 158.34 7.722 160.096 7.722V5.722C158.144 5.722 156.4 6.01542 154.885 6.63306L155.641 8.48493ZM160.096 7.722C161.375 7.722 162.554 7.85841 163.637 8.12501L164.115 6.18298C162.858 5.87358 161.517 5.722 160.096 5.722V7.722ZM163.651 8.12839C164.736 8.37883 165.639 8.7387 166.375 9.19303L167.425 7.49096C166.47 6.9013 165.356 6.46917 164.101 6.17961L163.651 8.12839ZM166.002 7.90213L164.058 11.8711L165.854 12.7509L167.798 8.78187L166.002 7.90213ZM165.492 11.4665C164.661 10.9394 163.745 10.5486 162.751 10.2902L162.247 12.2258C163.053 12.4354 163.776 12.7466 164.421 13.1555L165.492 11.4665ZM162.774 10.2965C161.801 10.0184 160.799 9.88 159.772 9.88V11.88C160.617 11.88 161.434 11.9936 162.224 12.2195L162.774 10.2965ZM159.772 9.88C158.982 9.88 158.256 9.96842 157.613 10.1679L158.206 12.0781C158.607 11.9536 159.123 11.88 159.772 11.88V9.88ZM157.603 10.171C156.99 10.3679 156.438 10.6671 156.019 11.1141L157.478 12.4819C157.599 12.3529 157.82 12.2021 158.215 12.075L157.603 10.171ZM156.017 11.1157C155.607 11.5547 155.37 12.0994 155.37 12.716H157.37C157.37 12.6486 157.385 12.5813 157.479 12.4803L156.017 11.1157ZM155.37 12.716C155.37 13.436 155.72 14.0197 156.271 14.4177L157.442 12.7963C157.379 12.751 157.367 12.7257 157.37 12.7299C157.37 12.7311 157.371 12.7334 157.371 12.7348C157.372 12.7358 157.37 12.7305 157.37 12.716H155.37ZM156.271 14.4177C156.714 14.7378 157.258 14.9769 157.865 15.1588L158.439 13.2432C157.966 13.1011 157.646 12.9442 157.442 12.7963L156.271 14.4177ZM157.873 15.1613C158.436 15.3246 159.042 15.4966 159.693 15.6775L160.229 13.7505C159.584 13.5714 158.985 13.4014 158.431 13.2407L157.873 15.1613ZM159.725 15.6857C160.356 15.8391 160.978 16.0267 161.592 16.2486L162.272 14.3674C161.59 14.1213 160.899 13.9129 160.197 13.7423L159.725 15.6857ZM161.616 16.2567C162.178 16.4442 162.699 16.7009 163.18 17.0269L164.302 15.3711C163.667 14.9411 162.982 14.6038 162.248 14.3593L161.616 16.2567ZM163.199 17.0393C163.628 17.3162 163.957 17.6608 164.199 18.0781L165.929 17.0739C165.523 16.3752 164.97 15.8018 164.283 15.3587L163.199 17.0393ZM164.199 18.0781C164.413 18.4462 164.55 18.9544 164.55 19.655H166.55C166.55 18.6996 166.363 17.8218 165.929 17.0739L164.199 18.0781ZM164.55 19.655C164.55 20.8107 164.238 21.7787 163.636 22.6013L165.25 23.7827C166.124 22.5893 166.55 21.1993 166.55 19.655H164.55ZM163.636 22.6013C163.026 23.4346 162.135 24.114 160.906 24.6151L161.662 26.4669C163.169 25.852 164.384 24.9654 165.25 23.7827L163.636 22.6013ZM160.906 24.6151C159.685 25.1134 158.207 25.378 156.451 25.378V27.378C158.403 27.378 160.148 27.0846 161.662 26.4669L160.906 24.6151ZM183.275 7.1V6.1H182.455L182.294 6.90388L183.275 7.1ZM188.621 7.1L189.601 7.29611L189.84 6.1H188.621V7.1ZM184.841 26V27H185.66L185.821 26.1961L184.841 26ZM179.495 26L178.514 25.8039L178.275 27H179.495V26ZM172.232 26V27H173.051L173.212 26.1961L172.232 26ZM166.886 26L165.905 25.8039L165.666 27H166.886V26ZM170.666 7.1V6.1H169.846L169.685 6.90388L170.666 7.1ZM176.012 7.1L176.992 7.29611L177.231 6.1H176.012V7.1ZM181.358 18.629V19.629H182.176L182.338 18.8263L181.358 18.629ZM173.339 18.629L172.358 18.4317L172.117 19.629H173.339V18.629ZM174.23 14.201V13.201H173.411L173.249 14.0037L174.23 14.201ZM182.249 14.201L183.229 14.3983L183.47 13.201H182.249V14.201ZM183.275 8.1H188.621V6.1H183.275V8.1ZM187.64 6.90388L183.86 25.8039L185.821 26.1961L189.601 7.29611L187.64 6.90388ZM184.841 25H179.495V27H184.841V25ZM180.475 26.1961L184.255 7.29611L182.294 6.90388L178.514 25.8039L180.475 26.1961ZM172.232 25H166.886V27H172.232V25ZM167.866 26.1961L171.646 7.29611L169.685 6.90388L165.905 25.8039L167.866 26.1961ZM170.666 8.1H176.012V6.1H170.666V8.1ZM175.031 6.90388L171.251 25.8039L173.212 26.1961L176.992 7.29611L175.031 6.90388ZM181.358 17.629H173.339V19.629H181.358V17.629ZM174.319 18.8263L175.21 14.3983L173.249 14.0037L172.358 18.4317L174.319 18.8263ZM174.23 15.201H182.249V13.201H174.23V15.201ZM181.268 14.0037L180.377 18.4317L182.338 18.8263L183.229 14.3983L181.268 14.0037ZM188.638 26L187.658 25.8039L187.419 27H188.638V26ZM192.418 7.1V6.1H191.599L191.438 6.90388L192.418 7.1ZM197.764 7.1L198.745 7.29611L198.984 6.1H197.764V7.1ZM193.984 26V27H194.804L194.965 26.1961L193.984 26ZM189.619 26.1961L193.399 7.29611L191.438 6.90388L187.658 25.8039L189.619 26.1961ZM192.418 8.1H197.764V6.1H192.418V8.1ZM196.784 6.90388L193.004 25.8039L194.965 26.1961L198.745 7.29611L196.784 6.90388ZM193.984 25H188.638V27H193.984V25Z" fill="white" mask="url(#path-3-outside-2_59_630)"/>
</svg>
